<?xml version="1.0" standalone="no"?>
<!DOCTYPE svg PUBLIC "-//W3C//DTD SVG 20010904//EN"
 "http://www.w3.org/TR/2001/REC-SVG-20010904/DTD/svg10.dtd">
<svg version="1.0" xmlns="http://www.w3.org/2000/svg"
 width="764.000000pt" height="764.000000pt" viewBox="0 0 764.000000 764.000000"
 preserveAspectRatio="xMidYMid meet">
<metadata>
Created by potrace 1.11, written by Peter Selinger 2001-2013
</metadata>
<g transform="translate(0.000000,764.000000) scale(0.100000,-0.100000)"
fill="#000000" stroke="none">
<path d="M3608 7634 c-2 -2 -35 -5 -73 -8 -101 -7 -327 -42 -395 -61 -5 -2
-81 -18 -90 -20 -3 -1 -14 -4 -25 -8 -11 -3 -31 -8 -45 -11 -14 -2 -60 -16
-104 -30 -43 -14 -82 -26 -86 -26 -4 0 -25 -8 -46 -17 -22 -9 -48 -18 -58 -20
-11 -2 -24 -7 -30 -12 -6 -5 -29 -14 -51 -21 -22 -7 -54 -21 -72 -31 -17 -10
-34 -15 -37 -12 -3 4 -6 1 -6 -5 0 -7 -7 -12 -14 -12 -12 0 -130 -59 -281
-139 -26 -14 -256 -166 -320 -211 -30 -21 -99 -74 -105 -80 -3 -3 -32 -27 -65
-55 -102 -85 -115 -97 -224 -205 -90 -89 -144 -149 -319 -355 -9 -12 -33 -43
-52 -70 -39 -56 -40 -58 -76 -102 -14 -18 -22 -33 -17 -33 4 0 3 -4 -3 -8 -6
-4 -31 -38 -55 -77 -64 -101 -68 -107 -81 -137 -7 -16 -16 -28 -20 -28 -4 0
-8 -5 -8 -11 0 -6 -9 -24 -21 -40 -11 -16 -17 -29 -12 -29 4 0 3 -4 -2 -8 -11
-7 -105 -194 -105 -209 0 -4 -9 -19 -20 -33 -11 -14 -20 -31 -20 -38 0 -8 -6
-28 -14 -45 -71 -155 -166 -441 -211 -637 -14 -56 -55 -262 -60 -295 -3 -22
-8 -53 -11 -70 -3 -16 -7 -48 -9 -70 -14 -117 -18 -155 -22 -205 -7 -86 -7
-599 0 -662 4 -32 9 -82 12 -110 8 -98 44 -324 69 -438 3 -14 8 -35 10 -47 21
-106 113 -406 164 -538 65 -168 78 -198 164 -370 78 -156 118 -228 130 -233 4
-2 8 -9 8 -15 0 -10 51 -94 103 -170 28 -43 121 -172 127 -177 3 -3 19 -23 35
-45 137 -185 462 -513 610 -617 5 -4 26 -20 45 -36 19 -16 64 -48 100 -73 36
-24 67 -46 70 -50 7 -7 173 -110 230 -142 48 -27 252 -131 260 -132 3 -1 31
-13 64 -28 32 -15 61 -27 63 -27 3 0 19 -6 36 -14 36 -16 272 -99 272 -95 0 1
16 -3 35 -9 41 -13 42 -13 225 -52 77 -17 165 -33 195 -36 30 -3 58 -7 61 -9
15 -10 206 -19 389 -19 180 0 328 7 402 19 13 2 41 6 63 10 22 3 67 10 100 16
33 6 71 12 85 14 14 2 25 4 25 5 0 2 18 6 60 15 17 4 35 8 40 9 89 22 206 56
230 66 11 5 49 18 85 30 80 26 277 108 308 128 12 8 22 10 22 6 0 -5 4 -4 8 2
4 6 39 26 77 45 39 18 72 36 75 39 3 3 16 11 30 18 53 26 247 148 260 163 3 3
23 17 45 31 22 14 50 34 62 44 11 11 31 26 43 34 23 16 30 22 100 80 142 118
335 310 447 444 41 50 83 100 92 112 59 70 232 322 266 387 11 20 23 37 27 37
5 0 8 9 8 19 0 11 4 21 8 23 9 3 12 9 76 135 22 43 44 81 50 85 6 4 8 8 4 8
-4 0 13 42 37 93 24 50 45 99 47 107 2 8 6 17 9 20 4 4 51 124 55 140 1 5 9
27 29 80 13 33 47 140 58 185 3 11 13 45 21 75 17 58 63 255 72 305 8 50 14
79 19 104 5 27 17 117 31 231 26 222 25 685 -1 905 -2 22 -7 58 -9 80 -3 22
-9 67 -15 100 -5 33 -12 80 -16 105 -4 25 -9 52 -12 60 -3 8 -7 28 -9 45 -10
76 -125 486 -154 550 -5 11 -25 61 -44 111 -66 174 -191 431 -275 564 -8 14
-14 28 -13 33 1 4 -3 7 -8 7 -6 0 -10 4 -10 9 0 12 -81 135 -92 139 -4 2 -8 8
-8 14 0 9 -117 174 -144 204 -6 7 -24 29 -41 50 -159 201 -409 446 -611 599
-43 33 -81 62 -84 65 -3 3 -12 10 -21 15 -28 17 -162 106 -191 126 -15 10 -31
19 -37 19 -5 0 -11 3 -13 8 -4 8 -30 23 -193 106 -144 74 -216 105 -355 156
-91 33 -234 79 -265 86 -5 1 -39 10 -75 19 -90 22 -101 25 -135 30 -16 3 -43
8 -60 12 -16 3 -39 7 -50 9 -11 1 -54 7 -95 13 -41 6 -95 13 -120 17 -51 6
-527 14 -532 8z"/>
</g>
</svg>
