<?xml version="1.0" encoding="utf-8"?>
<!-- Generator: Adobe Illustrator 19.0.0, SVG Export Plug-In . SVG Version: 6.00 Build 0)  -->
<svg version="1.1" id="Laag_1" xmlns="http://www.w3.org/2000/svg" xmlns:xlink="http://www.w3.org/1999/xlink" x="0px" y="0px"
	 viewBox="-49 173 400 156" style="enable-background:new -49 173 400 156;" xml:space="preserve">
<style type="text/css">
	.st0{fill:#1A1919;}
	.st1{fill:none;}
	.st2{font-family:'MyriadPro-Regular';}
	.st3{font-size:36px;}
</style>
<title>CMYK_black_ESC_Lisbon_2018</title>
<desc>Created with Sketch.</desc>
<g id="Page-1">
	<g id="CMYK_black_ESC_Lisbon_2018" transform="translate(-0.263082, 0.449683)">
		<path id="Fill-3" class="st0" d="M121.1,213.9c0.2-19.7,10.5-25.9,16.1-25.9c7.8,0,11,6,11.6,8.6c0.5,2.6,3.5,4.7,4.4,0.4
			c1-4.3,10.1-17.5,21.4-17.5c10.3,0,13.9,10.7,13.6,19.7c-0.8,24.7-32.7,44.4-36.8,56.8C147.6,248.5,120.8,237.6,121.1,213.9z
			 M178.3,173.4c-9.3,0-20.3,6.9-26.9,18.3c-1.8-4.1-8.2-8.6-15.8-8.6c-6.1,0-23.3,7.7-23.3,32.3c0,31.9,32.2,38.4,38.8,48.3
			c0.4,0.7,1.9,1.2,2.4-0.4c5.2-15.4,45.5-32.7,45.5-63.9C199,181.8,187.6,173.4,178.3,173.4L178.3,173.4z"/>
		<path id="Fill-114" class="st0" d="M290.2,250.2c-5.3-0.3-8.4-6.6-8-13c0.7-11.4,10.2-22.9,10.2-22.9c2.2,2,8.9,13,8.5,21.4
			C300.5,243.9,295.5,250.5,290.2,250.2z M296.6,210.5c2.3-2.7,3.9-4.2,3.5-6.1c-0.4-1.9-6.6-3.1-9.4-0.6c-8.3-6.6-6.6,1.1-5.4,2.8
			c-9.8,6.9-16.4,24.9-11.1,39.1c5.2,13.8,20.9,15.5,29.1,5.8C310.6,243,309.3,227.2,296.6,210.5L296.6,210.5z"/>
		<path id="Fill-115" class="st0" d="M-9.5,183.1c-18.4-1.3-38.8,13.9-38,33.7c0.1,1.9,1.7,3.6,4,3.6c2.8,0,11.2-0.3,11.2-0.3
			s-16.5,13-16.5,28.2c0,8,6,17.6,18.6,17.6c17.6,0,30.7-14.4,30.7-26.6c0-0.9-1.1-2.2-2.8-0.2c-2.7,3.3-17.4,18.3-31.8,18.3
			c-4.9,0-9.1-2.7-9.1-8.5c0-7.6,12-22.4,32.7-28.2c5.1-1.5,5.5-8.5-1-8.9c-6.3-0.3-28.2,2.1-29.8,2.1c-1.6,0-1.7-0.3-1.2-1.8
			c0.7-1.9,8.8-15.9,32.8-18.6C-1.4,193-2.3,183.7-9.5,183.1"/>
		<path id="Fill-116" class="st0" d="M16.5,206.2c0-4.8-7.1-7.7-9.8-0.9c-5.1,13-6.7,52.5,10.5,52.5c7.6,0,17.2-16.6,17.2-32.7
			c0-13.3-5.5-22-6.6-23.6c-1.2-1.6-2.7-0.7-2.5,2.2c0.2,2.9,1,30.1-7.5,40c-3.4,3.7-5.8-0.2-6.2-3.8
			C10.6,229.2,16.5,213.1,16.5,206.2"/>
		<path id="Fill-117" class="st0" d="M95.2,248.6c-4.8,0-7.5-6.2-7.5-13c0-11.9,8.6-22.8,8.6-22.8c2.4,3,8.1,11.5,8.1,20.1
			C104.3,241.5,100,248.6,95.2,248.6z M99,209c0,0,2.7-3.7,1.1-5.8c-1.8-2.4-7.8-3.1-13.3,3.1c-7.3,8.2-12.4,25.4-6.9,39.9
			c5.3,13.8,20.1,15,27,4.5C113,241.4,111.4,225.7,99,209L99,209z"/>
		<path id="Fill-118" class="st0" d="M50.5,223.1c0.4-5.4,0.8-11,0.8-11c0,0,12-3.1,16.1-2.6c3.6,0.4,4.3,1.9,2.5,4.7
			C65.7,220.9,55.8,223.2,50.5,223.1z M76.3,258.8c-5.1-7.1-11.6-21.4-21.5-30.1c10-0.6,22.6-8.4,22.6-16.8
			c0-6.2-6.4-10.6-14.8-10.6c-8.3,0-17.5,2.8-21,4.9c-4.5,2.6-1.2,8.9,3.1,7.2c0,0-1.6,7.4-2,11.3c-3.4-0.4-4.1,0.2-3.9,0.9
			c0.2,0.7,1.7,1.4,3.4,3.5c-0.5,4.6-1.5,25.3-1.3,27.1c0.2,1.8,1.3,2.1,2.9,0.2c1.4-1.7,4.3-5.8,5.7-21.2
			c1.6,1.4,5.9,7.2,11.2,13.9c7.7,9.9,10.3,10.6,13.5,11.8C75.8,261.5,77.6,260.5,76.3,258.8L76.3,258.8z"/>
		<path id="Fill-119" class="st0" d="M204.5,202.6c0.3,10.7-9.2,27.8-9.8,40.2c-0.4,9.1,1.2,12.7,2,13.9c0.8,1.3,2.6,1.4,3.1-0.9
			c1.4-6.8,11.1-24.7,12.4-39.1c0.8-8.8-2-14.2-5.1-15.3C205.6,201,204.5,201.2,204.5,202.6"/>
		<path id="Fill-120" class="st0" d="M239.7,201.3c-13.2,0-22.7,4.7-22.7,15.3c0,6.5,4.9,11,12.6,12.3c4.5,0.8,8.9,1.2,10.5,1.8
			c2.9,1.1-4,4.4-14.8,11.7c-7.3,5-12.7,10.3-15.6,15.8c-1,1.9,0.4,3.8,2.4,2.4c4-2.8,12.9-7.4,21.4-12.1
			c8.2-4.5,15.9-9.4,15.9-15.6c0-5.6-4.2-7.7-7.4-8c-5.6-0.6-17.6-0.1-17.6-7.1c0-2.6,3.4-6,14.5-6
			C247.5,211.7,246.7,201.3,239.7,201.3"/>
		<path id="Fill-121" class="st0" d="M256.3,203.2c4.3,8.3-3,30.8-3,39.4s1,11.6,3.2,14.4c1.2,1.4,2.7,0.6,2.8-1
			c0.7-7.6,8.8-28,9.3-37.6c0.7-12.1-5.3-16.8-8.8-17.1C257.9,201.1,255.4,201.5,256.3,203.2"/>
		<path id="Fill-122" class="st0" d="M259.3,191.5c-0.2,7.9,13,9.2,13-0.5c0-8.4-7-15.4-8.5-16.5c-2.2-1.8-5.3-1.5-4.6,1.4
			C260.9,182,259.4,188.8,259.3,191.5"/>
		<path id="Fill-123" class="st0" d="M349.7,256.9c-1.7-10.6,0.6-24.3,0.6-37.1c0-9.8-8.2-14.9-13-14.9c-6.3,0-10,2.8-10,2.8
			c0.1-1.9,0.4-4.7,0.3-5.6c-0.1-1-1.3-1-3.1-0.1c-9.9,6.2-11.3,23.8-11.3,36.1c0,12.2,1.9,16.6,2.2,18.2c0.2,1.6,2.1,1.8,2.9,0.4
			c5.3-10.2,5.9-28.9,7.7-39.3c2.5-3.4,12.7-4,13.1,4.1c0.4,8.2-0.4,29.1,8.1,36.3C348.2,258.9,349.9,258.4,349.7,256.9"/>
		<rect x="-48.7" y="277.2" class="st1" width="400" height="34.7"/>
		<text transform="matrix(1 0 0 1 104.9499 302.7766)" class="st2 st3">België</text>
	</g>
</g>
</svg>
